<svg width="195" height="215" viewBox="0 0 195 215" fill="none" xmlns="http://www.w3.org/2000/svg">
<path d="M0 0L17.8453 189.259L99.2547 215L177.146 189.259L195 0H0ZM156 67L104 87L154.159 87.1422L146.702 158.361L98.7721 172.168L48.5175 158.361L45.1836 122.542H69.8547L72.0568 140.615L97.9211 149.375L124.698 140.615L127.5 110H44L41.8145 86.2855L94.517 65.6842H39.8931L37.5 41H159L156 67Z" fill="#3DA5D9"/>
<path d="M98 149.5L97 149.07V110H127.5L125 140.5L98 149.5Z" fill="#475B5A"/>
<path d="M177.5 17.5L162.044 180.452L97.5 197.5V171.828L98.5 172L146.5 158.5L153.767 87.462L104 87L155.901 66.7872L159 41H97.5V17.5H177.5Z" fill="#475B5A"/>
</svg>
