<svg width="181" height="205" viewBox="0 0 181 205" fill="none" xmlns="http://www.w3.org/2000/svg">
<path fill-rule="evenodd" clip-rule="evenodd" d="M167 126.446C175.016 128.265 181 135.434 181 144C181 153.941 172.941 162 163 162C158.072 162 153.606 160.019 150.355 156.811L108.47 182.705C108.816 184.082 109 185.52 109 187C109 196.941 100.717 205 90.5 205C80.2827 205 72 196.941 72 187C72 185.755 72.1298 184.54 72.377 183.367L30.1628 157.269C26.9595 160.207 22.6891 162 18 162C8.05887 162 0 153.941 0 144C0 135.794 5.49144 128.87 13 126.704L13 77.2965C5.49143 75.1298 0 68.2062 0 60C0 50.0589 8.05887 42 18 42C23.7837 42 28.9302 44.7278 32.2233 48.967L72.9726 23.7747C72.3419 21.9621 72 20.0199 72 18C72 8.05887 80.2827 0 90.5 0C100.717 0 109 8.05887 109 18C109 19.781 108.734 21.5016 108.239 23.1263L149.196 48.4471C152.498 44.5061 157.456 42 163 42C172.941 42 181 50.0589 181 60C181 68.5663 175.016 75.7351 167 77.554V126.446ZM95.1728 35.4209C93.6802 35.7988 92.1142 36 90.5 36C88.536 36 86.6435 35.7022 84.8676 35.1506L30.1983 130.764C32.5832 132.962 34.3724 135.798 35.2965 139H145.704C146.533 136.127 148.058 133.549 150.086 131.461L95.1728 35.4209ZM103.013 31.2584C103.217 31.0756 103.417 30.8885 103.613 30.697L145.341 56.4945C145.117 57.6283 145 58.8005 145 60C145 68.2062 150.491 75.1298 158 77.2965V126.704C157.882 126.738 157.764 126.773 157.647 126.809L103.013 31.2584ZM22 126.446L22 77.554C30.016 75.7351 36 68.5663 36 60C36 59.0465 35.9259 58.1103 35.783 57.1969L76.3996 32.0866L22.3934 126.54C22.2628 126.507 22.1317 126.476 22 126.446ZM76.3563 175.397C79.7499 171.485 84.8267 169 90.5 169C95.9347 169 100.822 171.28 104.207 174.911L145.768 149.217C145.647 148.817 145.539 148.411 145.446 148H35.554C35.4113 148.629 35.2357 149.245 35.0291 149.847L76.3563 175.397Z" fill="#3DA5D9"/>
</svg>
