<svg width="186" height="215" viewBox="0 0 186 215" fill="none" xmlns="http://www.w3.org/2000/svg">
<path d="M0 0L17.0301 189.259L94.6737 215L168.97 189.259L186 0H0ZM149 63.0275H58.5L62 88.1443H146.5L141 158.974L93 172.537L45.8431 159.016L42.3701 122.617H66.0364L68.1118 140.145L93 149.429L118.323 140.145L120.943 111.22H41.2822L34.4953 40.3125H151.07L149 63.0275Z" fill="#3DA5D9"/>
<path d="M118.5 141.387L93 150V112H121L118.5 141.387Z" fill="#475B5A"/>
<path d="M171 18L155.939 180.047L93 197V172L141 158.5L146.5 88.0179H93V63.0792H149L151 40.5H93V18H171Z" fill="#475B5A"/>
</svg>
