<?xml version="1.0" encoding="UTF-8" standalone="no"?>
<!-- Created with Inkscape (http://www.inkscape.org/) -->

<svg
   version="1.1"
   id="svg2"
   width="341.33334"
   height="341.33334"
   viewBox="0 0 341.33334 341.33334"
   sodipodi:docname="icons [Recovered].ai"
   xmlns:inkscape="http://www.inkscape.org/namespaces/inkscape"
   xmlns:sodipodi="http://sodipodi.sourceforge.net/DTD/sodipodi-0.dtd"
   xmlns="http://www.w3.org/2000/svg"
   xmlns:svg="http://www.w3.org/2000/svg">
  <defs
     id="defs6">
    <clipPath
       clipPathUnits="userSpaceOnUse"
       id="clipPath16">
      <path
         d="M 0,256 H 256 V 0 H 0 Z"
         id="path14" />
    </clipPath>
  </defs>
  <sodipodi:namedview
     id="namedview4"
     pagecolor="#ffffff"
     bordercolor="#000000"
     borderopacity="0.25"
     inkscape:showpageshadow="2"
     inkscape:pageopacity="0.0"
     inkscape:pagecheckerboard="0"
     inkscape:deskcolor="#d1d1d1" />
  <g
     id="g8"
     inkscape:groupmode="layer"
     inkscape:label="icons [Recovered]"
     transform="matrix(1.3333333,0,0,-1.3333333,0,341.33333)">
    <g
       id="g10">
      <g
         id="g12"
         clip-path="url(#clipPath16)">
        <g
           id="g18"
           transform="translate(256,128)">
          <path
             d="m 0,0 c 0,70.692 -57.308,128 -128,128 -70.692,0 -128,-57.308 -128,-128 0,-63.888 46.808,-116.843 108,-126.444 V -37 h -32.5 V 0 H -148 V 28.2 C -148,60.28 -128.89,78 -99.653,78 -85.648,78 -71,75.5 -71,75.5 V 44 H -87.141 C -103.041,44 -108,34.133 -108,24.011 V 0 h 35.5 l -5.675,-37 H -108 v -89.444 C -46.808,-116.843 0,-63.888 0,0"
             style="fill:#000000;fill-opacity:1;fill-rule:nonzero;stroke:none"
             id="path20" />
        </g>
      </g>
    </g>
  </g>
</svg>
