<svg width="187" height="215" viewBox="0 0 187 215" fill="none" xmlns="http://www.w3.org/2000/svg">
<path d="M0 0L17.1216 189.259L95.1827 215L169.878 189.259L187 0H0ZM89.5372 170.681L46.527 158.361L43.2542 121.668L59.0044 125.279L60.9479 140.615L73.4841 144.134L69.6559 40.3125H89.5456L89.5372 170.681ZM150.25 63.0555H119.834L118.522 87.4109H147.81L140.692 158.395L98.7332 170.992L98.7753 147.619L124.504 140.649L127.869 108.894L98.8258 110.574L98.9856 40.3125H152.538L150.25 63.0555Z" fill="#3DA5D9"/>
<path d="M94 17V197L156.123 179.952L171 17H94ZM150.23 63.0112H119.836L118.316 87.7865H147.697L140.605 158.573L99.0658 170.708L99.258 147.704L124.902 140.703L128.257 108.809L99.3083 110.496L99.0658 40.2584H152.573L150.23 63.0112Z" fill="#475B5A"/>
</svg>
