<svg width="188" height="213" viewBox="0 0 188 213" fill="none" xmlns="http://www.w3.org/2000/svg">
<path d="M90 9L16 30L7 94L37 163L95 201L149 163L177 105L169 30L90 9Z" fill="#475B5A"/>
<path fill-rule="evenodd" clip-rule="evenodd" d="M94.4217 1.0089L94 11L93.5782 1.0089L94 0.991096L94.4217 1.0089ZM94 202L90.6707 211.43L94.0003 212.605L97.3298 211.429L94 202ZM94 21.0107C93.9411 21.0135 93.8764 21.0167 93.8057 21.0202C93.38 21.0414 92.7428 21.0748 91.9197 21.1226C90.2727 21.2183 87.8849 21.3718 84.9599 21.6012C79.098 22.0608 71.1361 22.8205 62.6843 24.0195C54.1934 25.224 45.4222 26.8424 37.8678 28.9726C31.9593 30.6387 27.5107 32.4279 24.5674 34.1429C11.1581 96.2859 29.52 135.37 50.5364 159.117C61.4283 171.424 73.2677 179.857 82.3978 185.208C86.9511 187.876 90.7933 189.757 93.45 190.952C93.6394 191.038 93.8227 191.119 93.9996 191.198C94.1767 191.119 94.36 191.038 94.5494 190.952C97.2062 189.756 101.048 187.876 105.602 185.207C114.732 179.855 126.571 171.422 137.463 159.114C158.48 135.366 176.842 96.2817 163.433 34.143C160.489 32.4279 156.041 30.6387 150.132 28.9726C142.578 26.8424 133.807 25.224 125.316 24.0195C116.864 22.8205 108.902 22.0608 103.04 21.6012C100.115 21.3718 97.7272 21.2183 96.0803 21.1226C95.2571 21.0748 94.6199 21.0414 94.1942 21.0202C94.1236 21.0167 94.0588 21.0135 94 21.0107ZM93.5753 1.00902C93.5769 1.00895 93.5782 1.0089 94 11C94.4217 1.0089 94.423 1.00895 94.4246 1.00902L94.484 1.0116L94.634 1.01835C94.7627 1.02425 94.9482 1.033 95.1874 1.04489C95.6656 1.06867 96.3587 1.10503 97.2409 1.15631C99.0046 1.25883 101.528 1.42122 104.603 1.66236C110.742 2.1437 119.141 2.94326 128.125 4.21774C137.07 5.48668 146.81 7.25592 155.56 9.72324C163.985 12.0988 172.798 15.4653 178.825 20.5867L181.342 22.7252L182.09 25.9417C198.547 96.7002 178.039 143.443 152.441 172.369C139.819 186.63 126.183 196.326 115.715 202.461C110.47 205.536 105.983 207.738 102.76 209.189C101.147 209.915 99.8473 210.455 98.9224 210.823C98.4598 211.007 98.0907 211.148 97.8227 211.249C97.6888 211.299 97.5801 211.339 97.4976 211.369L97.3937 211.407L97.342 211.425C97.3357 211.427 97.3298 211.429 94 202C90.6707 211.43 90.6649 211.427 90.6586 211.425L90.6439 211.42L90.6069 211.407L90.503 211.369C90.4205 211.339 90.3118 211.299 90.1778 211.249C89.9099 211.149 89.5408 211.007 89.0782 210.823C88.1533 210.455 86.8532 209.916 85.2405 209.19C82.0177 207.739 77.5306 205.537 72.285 202.463C61.8174 196.328 48.1807 186.633 35.5595 172.372C9.96045 143.447 -10.5465 96.7042 5.91025 25.9418L6.65831 22.7252L9.17486 20.5867C15.2017 15.4653 24.0154 12.0988 32.4398 9.72324C41.1897 7.25592 50.9302 5.48668 59.8752 4.21774C68.8592 2.94326 77.2575 2.1437 83.3967 1.66236C86.4722 1.42122 88.9953 1.25883 90.759 1.15631C91.6412 1.10503 92.3343 1.06867 92.8126 1.04489C93.0518 1.033 93.2373 1.02425 93.3659 1.01835L93.5159 1.0116L93.5753 1.00902Z" fill="#3DA5D9"/>
<path d="M98.8285 153.639V169H88.273V152.781C28.2429 95.1456 93.9963 35 93.9963 35C93.9963 35 160.412 95.7567 98.8285 153.639Z" fill="#3DA5D9"/>
<path d="M88.5 153L94.5162 139.345L94.0001 35C94.0001 35 26.9114 95.4132 88.5 153Z" fill="white"/>
</svg>
