<svg width="187" height="210" viewBox="0 0 187 210" fill="none" xmlns="http://www.w3.org/2000/svg">
<path fill-rule="evenodd" clip-rule="evenodd" d="M81.7729 86.0325C83.3096 72.0599 98.4516 62 117.39 62C135.668 62 146.106 67.3061 150.811 75.9391C154.869 83.3824 153.217 92.6207 153.217 92.1209H139.217C139.217 90.978 139.311 89.9704 139.398 89.0343C139.607 86.7849 139.777 84.9485 138.519 82.6396C137.385 80.5595 133.409 76 117.39 76C102.031 76 96.1097 83.7378 95.6889 87.563C95.5057 89.2294 96.044 91.3161 98.8735 93.3449C101.924 95.5322 107.712 97.5955 117.39 97.5955C128.837 97.5955 138.071 100.057 144.629 104.481C151.28 108.968 155.257 115.628 154.987 123.052C154.721 130.366 150.392 136.795 143.84 141.144C137.285 145.495 128.279 148 117.39 148C97.0625 148 85.4231 143.414 79.7726 135.326C74.9658 128.446 75.9936 119.941 76.2076 118.17C76.2279 118.002 76.2409 117.895 76.2409 117.855H90.2409C90.2409 119.105 90.1713 120.17 90.1097 121.114C89.9454 123.629 89.837 125.287 91.2492 127.308C92.8036 129.533 98.2386 134 117.39 134C126.24 134 132.369 131.954 136.098 129.48C139.829 127.003 140.932 124.331 140.997 122.543C141.058 120.866 140.266 118.426 136.799 116.087C133.239 113.685 127.006 111.596 117.39 111.596C106.004 111.596 96.9734 109.209 90.7156 104.722C84.2369 100.077 80.9774 93.265 81.7729 86.0325Z" fill="#475B5A"/>
<path d="M94.6187 9.50478e-05C98.1069 0.00979725 101.986 0.763537 105.273 2.67345L176.324 44.0258L176.349 44.0399C179.642 45.9333 182.221 48.9215 183.959 51.9307C185.703 54.9488 187 58.6813 187 62.4777V146.646C187 150.433 185.712 154.162 183.982 157.185C182.252 160.208 179.688 163.207 176.421 165.13L105.343 207.041L105.33 207.049C102.144 208.94 98.3258 209.792 94.8887 209.966C91.442 210.139 87.5604 209.672 84.1987 208.131L87.1063 201.788C84.1978 208.131 84.1965 208.13 84.1965 208.13L84.1905 208.127L84.1773 208.121L84.1332 208.101L83.9771 208.028C83.8436 207.966 83.6521 207.877 83.4094 207.762C82.9243 207.532 82.2329 207.201 81.3886 206.786C79.704 205.958 77.3897 204.786 74.8786 203.412C70.1576 200.827 63.7092 196.985 59.9939 193.069L70.151 183.434C72.1576 185.549 76.7308 188.465 81.6009 191.131C83.8853 192.382 86.009 193.458 87.5634 194.222C88.3386 194.603 88.967 194.903 89.3968 195.107C89.6116 195.208 89.7764 195.285 89.8847 195.336L90.004 195.391L90.0302 195.403L90.0325 195.404L90.0343 195.405C90.8135 195.762 92.3134 196.078 94.1836 195.983C96.0601 195.889 97.4898 195.423 98.1851 195.009L98.1969 195.002L169.315 153.068L169.319 153.065C169.978 152.678 170.979 151.72 171.832 150.23C172.686 148.738 173 147.397 173 146.646V62.4777C173 61.7357 172.687 60.4057 171.836 58.9328C170.985 57.4585 169.995 56.5344 169.367 56.1744L169.345 56.1623L98.2387 14.778L98.2376 14.7773C97.5905 14.4017 96.2826 14.0048 94.5798 14C92.879 13.9953 91.5656 14.3841 90.9106 14.7579L90.9078 14.7596L17.6581 56.8299C17.0072 57.2041 16.0117 58.1385 15.1621 59.6057C14.3117 61.0744 14 62.3981 14 63.1379V147.917C14 148.641 14.308 149.94 15.1544 151.379C16.0005 152.818 16.9877 153.72 17.627 154.075L36.7788 164.737C37.8355 165.327 39.7105 165.967 41.9792 166.333C44.2493 166.699 46.2234 166.68 47.403 166.452L47.4064 166.451L47.4147 166.449C47.4425 166.443 47.508 166.429 47.6059 166.405C47.8033 166.357 48.122 166.273 48.5199 166.145C49.3408 165.883 50.3667 165.478 51.3311 164.911C53.311 163.748 54.0361 162.6 54.0398 161.143L54.2882 64.2834L68.2881 64.3193L68.0397 161.178C68.0184 169.599 62.5911 174.533 58.4246 176.981C56.3159 178.22 54.2702 179.005 52.7877 179.479C52.034 179.72 51.3931 179.892 50.9188 180.007C50.6808 180.065 50.4825 180.11 50.3304 180.142C50.2542 180.158 50.1894 180.172 50.1367 180.182L50.0668 180.196L50.0581 180.198C46.7682 180.834 43.0486 180.686 39.7485 180.154C36.4468 179.621 32.876 178.591 29.9591 176.963L29.9526 176.96C29.9526 176.96 13.6621 168.073 10.8311 166.315C8 164.557 5.91262 163.522 3.5 160C1.08738 156.478 0 151.731 0 147.917V63.1379C0 59.3392 1.29891 55.6087 3.04657 52.5905C4.79474 49.5713 7.38503 46.5859 10.684 44.6906L83.9528 2.60935C87.2487 0.722718 91.13 -0.00960811 94.6187 9.50478e-05Z" fill="#475B5A"/>
</svg>
