<svg width="33" height="29" viewBox="0 0 33 29" fill="none" xmlns="http://www.w3.org/2000/svg">
<path d="M11.4499 10.75L5.2749 23.75H27.3749L20.2249 17.25L15.9999 20.5L11.4499 10.75Z" fill="black"/>
<path fill-rule="evenodd" clip-rule="evenodd" d="M0.199951 4.05002H26.95C29.9875 4.05002 32.45 6.51245 32.45 9.55002V23C32.45 26.0376 29.9875 28.5 26.95 28.5H5.69995C2.66238 28.5 0.199951 26.0376 0.199951 23V4.05002ZM3.19995 7.05002V23C3.19995 24.3807 4.31924 25.5 5.69995 25.5H26.95C28.3307 25.5 29.45 24.3807 29.45 23V9.55002C29.45 8.16931 28.3307 7.05002 26.95 7.05002H3.19995Z" fill="black"/>
<path d="M1.04993 4.00003C1.04993 2.34318 2.39307 1.00003 4.04993 1.00003H11.0499C12.7068 1.00003 14.0499 2.34318 14.0499 4.00003V6.20003H1.04993V4.00003Z" fill="black"/>
<path fill-rule="evenodd" clip-rule="evenodd" d="M0.199951 4.00003C0.199951 1.87373 1.92365 0.150024 4.04995 0.150024H11.05C13.1762 0.150024 14.9 1.87373 14.9 4.00002V7.05002H0.199951V4.00003ZM4.04995 1.85002C2.86254 1.85002 1.89995 2.81261 1.89995 4.00003V5.35002H13.2V4.00002C13.2 2.81261 12.2374 1.85002 11.05 1.85002H4.04995Z" fill="black"/>
<circle cx="24.45" cy="12.05" r="2.6" fill="black"/>
</svg>
