<svg width="202" height="208" viewBox="0 0 202 208" fill="none" xmlns="http://www.w3.org/2000/svg">
<path d="M79.5289 8.60576C88.8622 0.958343 104.976 -0.205041 120.252 3.18748C168.602 -7.95009 193.61 12.4213 198.699 28.5541C204.992 48.4944 193.821 89.6765 176.024 118.753C189.61 119.266 193.04 113.449 200.471 123.211C207.902 132.974 187.268 150.799 159.699 149.099C158.845 195.797 144.431 208 117.708 208C104.553 204.705 92.8865 198.758 93.106 154.403C82.3337 158.967 67.6509 159.496 57.4721 150.164C39.8381 163.32 22.4967 143.729 15.448 120.445C9.96018 102.238 0.17975 80.939 0.000888758 51.6835C-0.121062 23.323 12.2935 4.359 45.5941 3.34206C58.3176 3.34206 61.716 3.51291 79.5289 8.60576Z" fill="#3DA5D9"/>
<path fill-rule="evenodd" clip-rule="evenodd" d="M155.576 141.268C155.985 141.355 156.424 141.443 156.892 141.531C159.793 142.076 163.827 142.598 168.32 142.484C177.263 142.257 188.573 139.465 195.897 128.667C196.664 127.535 196.702 126.061 195.995 124.891C195.287 123.721 193.963 123.07 192.605 123.224L191.516 123.348C186.366 123.935 182.185 124.412 178.49 124.419C174.609 124.427 171.54 123.908 168.801 122.58C168.605 122.485 168.408 122.384 168.212 122.279C177.081 109.872 184.818 93.2196 190.014 77.1265C192.851 68.3424 194.963 59.625 196.086 51.739C197.201 43.9155 197.381 36.6424 196.151 30.8704C194.766 24.3709 190.164 19.2084 184.469 15.3263C178.74 11.4202 171.505 8.52255 163.982 6.64024C156.438 4.75271 148.417 3.83915 141.01 4.02323C133.872 4.20063 127.007 5.40503 121.655 7.98845C117.986 6.91451 114.262 6.16796 110.547 5.78857C99.6753 4.67802 88.7433 6.71367 79.6918 13.0655C61.6882 5.41999 41.1593 3.14735 25.8116 10.4193C17.7291 14.2489 11.2145 20.6849 7.47622 30.0525C3.77119 39.3368 2.89827 51.2239 5.48607 65.9035C10.5362 94.5509 17.3645 115.143 24.1114 128.685C27.4784 135.442 30.8904 140.576 34.1545 144.086C37.2458 147.411 40.878 150 44.7127 150C50.536 150 55.312 146.176 59.7064 141.589L59.7285 141.565C59.6955 141.86 59.6869 142.168 59.7071 142.49C59.8072 144.081 60.5553 145.45 61.375 146.484C62.2256 147.556 63.3469 148.516 64.6242 149.329C67.1865 150.959 70.6483 152.169 74.6836 152.442C81.5224 152.905 89.8588 150.685 98.4277 143.552C98.3345 145.066 98.2068 146.675 98.0709 148.387C98.0286 148.92 97.9856 149.462 97.9426 150.014C97.5658 154.851 97.2115 160.284 97.6001 165.88L97.6002 165.881C98.2333 174.94 99.0736 184.854 102.597 191.973C104.419 195.656 107.065 198.83 110.951 200.715C114.823 202.592 119.49 202.978 124.964 201.922L124.99 201.917L125.016 201.912C137.692 199.266 144.494 194.994 148.185 188.478C149.949 185.363 150.861 181.968 151.536 178.554C151.848 176.977 152.121 175.333 152.394 173.684L152.463 173.27C152.763 171.463 153.072 169.628 153.457 167.724C154.313 163.481 154.577 158.743 154.77 154.201C154.798 153.553 154.824 152.909 154.85 152.27C155.006 148.404 155.156 144.702 155.576 141.268ZM133.554 12.7099C138.235 15.0761 142.679 17.96 146.722 21.2634C157.067 29.715 165.032 41.1202 167.44 54.0025L167.5 54.3214V54.6457C167.5 61.1538 166.747 64.3993 166.049 67.4053L166.018 67.5417C165.386 70.264 164.807 72.8237 164.959 78.4995C165.034 81.2934 165.36 84.339 165.717 87.6812L165.743 87.924C166.105 91.3052 166.488 94.9501 166.593 98.611C166.725 103.243 166.42 108.105 164.965 112.778C171.892 101.86 178.043 88.1666 182.401 74.6682C185.127 66.2256 187.12 57.9588 188.166 50.611C189.222 43.2008 189.275 36.9906 188.326 32.5378C187.533 28.8126 184.732 25.1877 179.963 21.9364C175.229 18.7091 168.94 16.1274 162.04 14.401C155.161 12.6799 147.86 11.8555 141.209 12.0208C138.478 12.0886 135.908 12.3221 133.554 12.7099ZM158.071 111.342C159.374 107.543 159.724 103.323 159.596 98.8105C159.5 95.4627 159.148 92.0789 158.783 88.6686L158.743 88.2938C158.396 85.06 158.044 81.7665 157.961 78.6869C157.789 72.2423 158.479 69.0638 159.199 65.9602L159.249 65.7437C159.607 64.2038 159.963 62.672 160.203 60.5846C154.778 60.3232 150.841 60.6782 148.078 61.5306C144.902 62.5105 143.529 64.0392 142.916 66.0748C142.194 68.4721 142.361 72.1301 143.808 77.57C145.23 82.9192 147.748 89.4951 151.168 97.4669C153.646 103.244 155.918 107.779 158.071 111.342ZM160.198 53.5764C157.798 43.3553 151.195 33.9567 142.294 26.6843C132.902 19.0112 121.195 13.9126 109.836 12.7523C98.5131 11.5957 87.7484 14.3527 79.7274 22.0852C72.4504 29.1006 67.012 40.6168 65.8097 58.1972C72.689 54.9861 78.5096 53.4546 83.4105 53.501C89.8462 53.562 94.526 56.3566 97.4894 60.9863C100.295 65.3693 101.399 71.128 101.65 77.0613C101.904 83.0665 101.297 89.6697 100.333 96.0598L100.329 96.0862C100.265 96.4907 100.201 96.8974 100.137 97.3068C99.0731 104.081 97.8945 111.589 93.3114 121.741C96.6483 122.355 99.3681 123.646 101.419 125.762C104.401 128.84 105.304 132.996 105.52 137.062C105.711 140.657 105.382 144.778 105.051 148.927L105.05 148.939C105.007 149.479 104.963 150.019 104.921 150.558C104.547 155.37 104.233 160.357 104.583 165.395C105.24 174.797 106.076 183.222 108.87 188.869C110.207 191.569 111.88 193.385 114.006 194.416C116.141 195.452 119.171 195.907 123.612 195.054C135.367 192.597 139.832 189.022 142.094 185.028C143.307 182.887 144.043 180.36 144.669 177.196C144.959 175.731 145.214 174.192 145.492 172.517L145.557 172.124C145.857 170.315 146.184 168.373 146.595 166.338C147.329 162.703 147.582 158.478 147.777 153.904C147.803 153.285 147.828 152.66 147.853 152.029C148.011 148.105 148.177 143.992 148.658 140.176C149.215 135.762 150.234 131.325 152.434 127.696C153.717 125.581 155.376 123.783 157.472 122.428C153.09 117.514 149.065 110.322 144.734 100.226C141.287 92.1894 138.602 85.2305 137.043 79.3692C135.508 73.5986 134.915 68.3704 136.214 64.0564C137.622 59.3806 141.051 56.3728 146.015 54.8416C149.769 53.6835 154.502 53.3236 160.198 53.5764ZM163.135 127.396C160.981 128.167 159.518 129.515 158.42 131.325C157.873 132.227 157.409 133.26 157.016 134.417C157.377 134.494 157.767 134.573 158.184 134.651C160.749 135.133 164.273 135.585 168.143 135.486C173.283 135.356 178.794 134.276 183.542 131.201C181.793 131.334 180.113 131.416 178.504 131.419C173.998 131.428 169.771 130.829 165.748 128.879C164.855 128.446 163.985 127.953 163.135 127.396ZM98.13 134.248C97.764 132.595 97.178 131.445 96.3917 130.634C95.4155 129.626 93.6729 128.679 90.2929 128.395C86.9623 135.411 80.1669 138.498 74.9356 140.304C73.5862 140.77 72.2706 141.172 71.1051 141.529L70.749 141.638C69.4585 142.034 68.4177 142.361 67.5757 142.687L67.5073 142.714L67.4504 142.737C67.6997 142.952 68.008 143.185 68.3815 143.423C69.8951 144.386 72.2141 145.259 75.1562 145.458C80.847 145.843 89.1121 143.7 98.13 134.248ZM85.9187 121.026C90.9597 110.619 92.1089 103.303 93.2252 96.1963L93.2268 96.1862C93.2888 95.7912 93.3507 95.3969 93.4132 95.0027C94.342 88.8408 94.8835 82.733 94.6562 77.357C94.4258 71.9053 93.4179 67.6099 91.5937 64.76C89.9274 62.1568 87.46 60.5397 83.3441 60.5007C79.3245 60.4626 73.6718 61.948 65.9186 65.9423C66.4602 70.7645 66.204 76.1882 65.9294 81.4398L65.8807 82.3662C65.5575 88.5036 65.2399 94.5339 65.8294 100.08C66.4453 105.874 68.0147 110.687 71.2314 114.245C74.0859 117.404 78.5846 119.953 85.9187 121.026ZM82.6201 127.561C80.3025 130.524 76.6783 132.297 72.6517 133.687C71.4253 134.11 70.2262 134.477 69.0463 134.839L68.6969 134.946C67.4447 135.33 66.162 135.728 65.045 136.161C64.7931 136.259 64.5314 136.365 64.2655 136.481C65.896 134.563 67.6182 132.47 69.4423 130.253L69.4441 130.251C70.8877 128.496 72.3951 126.664 73.9714 124.78C76.494 125.989 79.3667 126.923 82.6201 127.561ZM67.3245 120.257C66.8771 119.832 66.4485 119.393 66.0383 118.939C61.4261 113.837 59.5624 107.347 58.8687 100.82C58.2181 94.6997 58.5646 88.1509 58.8813 82.1676C58.9007 81.801 58.92 81.4364 58.9389 81.0742C59.277 74.609 59.4931 68.9969 58.6372 64.5504L58.5691 64.1964L58.5746 63.8359C58.8861 43.2484 64.2785 28.5457 72.9754 18.9947C57.1905 13.0848 40.84 12.1512 29.2371 17.6489C22.9025 20.6503 17.8648 25.6042 14.9064 33.0176C11.9148 40.5143 10.9468 50.7992 13.3646 64.5146C18.3257 92.6571 24.9656 112.46 31.2718 125.117C34.4314 131.458 37.4422 135.874 40.013 138.639C42.7567 141.589 44.3718 142 44.7127 142C46.9182 142 49.6217 140.551 53.9294 136.055C56.6296 133.236 59.5168 129.724 62.9718 125.522C64.3274 123.874 65.7711 122.118 67.3245 120.257Z" fill="#475B5A"/>
<path d="M80 65.3064C80 65.3064 81.5941 63.4276 86.1706 64.1762C90.7471 64.9249 89.9462 66.9981 89.9462 66.9981C89.9462 66.9981 89.008 69.9711 85.0036 69.9999C80.9992 70.0287 80 65.3064 80 65.3064Z" fill="#475B5A" stroke="#475B5A" stroke-miterlimit="10"/>
<path d="M146.013 64.9292C146.013 64.9292 145.582 62.912 149.687 62.174C153.793 61.436 155.966 63.2845 155.966 63.2845C155.966 63.2845 156.613 65.9835 152.283 67.6281C147.954 69.2728 146.013 64.9292 146.013 64.9292Z" fill="#475B5A" stroke="#475B5A" stroke-miterlimit="10"/>
</svg>
