<svg width="169" height="205" viewBox="0 0 169 205" fill="none" xmlns="http://www.w3.org/2000/svg">
<path fill-rule="evenodd" clip-rule="evenodd" d="M87.9432 26.6585C87.3864 28.817 55.3864 182.817 54.9432 185.158C54.5 187.5 56.5 191 59.9432 190.658C63.3864 190.317 151.5 163.5 153.5 162.5C155.5 161.5 155.5 158.5 154.943 157.158C154.386 155.817 94.3864 26.817 93.4432 25.1585C92.5 23.5 88.5 24.5 87.9432 26.6585ZM76.2759 5.58914C80.9931 -2.283 92.5776 -1.72967 96.5232 6.55608L167.617 155.852C170.644 162.209 167.3 169.768 160.561 171.805L53.5152 204.156C48.6972 205.613 43.4921 203.766 40.6684 199.6L1.98012 142.511C-0.529429 138.808 -0.663858 133.985 1.63552 130.148L76.2759 5.58914Z" fill="#3DA5D9"/>
</svg>
