<svg width="214" height="214" viewBox="0 0 214 214" fill="none" xmlns="http://www.w3.org/2000/svg">
<path d="M158.749 24.3731C158.683 12.1363 138.092 0 106.706 0C91.0082 0 78.3619 2.51269 69.617 6.51625C60.8722 10.5198 56.0621 16.098 56.0621 22.2457V48.2102H106.706V55.9326L28.4854 55.7064C28.4854 55.7064 0 59.6095 0 104.176C0 158.752 28.4854 159.774 28.4854 159.774L48.7094 160V131.339C48.7116 124.129 51.5585 117.215 56.6261 112.111C61.6937 107.007 68.5687 104.129 75.7443 104.109L131.873 103.959C135.451 103.951 138.992 103.234 142.293 101.848C145.594 100.463 148.591 98.4362 151.111 95.8848C153.631 93.3333 155.625 90.3071 156.979 86.9798C158.333 83.6524 159.019 80.0893 159 76.4948L158.749 24.3731ZM77.5783 35.1777C75.7065 35.1777 73.8769 34.62 72.3207 33.575C70.7646 32.5301 69.5518 31.0449 68.8359 29.3073C68.12 27.5698 67.9331 25.658 68.2989 23.8137C68.6647 21.9694 69.5666 20.2755 70.8907 18.9464C72.2148 17.6172 73.9015 16.7125 75.7375 16.3466C77.5734 15.9808 79.4761 16.1702 81.2049 16.891C82.9337 17.6118 84.4108 18.8316 85.4495 20.396C86.4882 21.9604 87.0417 23.7992 87.04 25.6797C87.04 26.9277 86.7952 28.1635 86.3196 29.3164C85.844 30.4693 85.147 31.5167 84.2682 32.3988C83.3895 33.2809 82.3464 33.9803 81.1985 34.4571C80.0506 34.934 78.8204 35.1788 77.5783 35.1777Z" fill="#3DA5D9"/>
<path d="M55.2505 189.631C55.3172 201.87 75.908 214 107.294 214C122.992 214 135.638 211.487 144.383 207.483C153.128 203.479 157.938 197.899 157.938 191.751V165.832H107.294V158.109L185.515 158.335C185.515 158.335 214 154.39 214 109.816C214 55.2314 185.515 54.2094 185.515 54.2094L165.291 54V82.6492C165.288 89.8597 162.442 96.7752 157.374 101.88C152.306 106.985 145.431 109.863 138.256 109.883L82.127 110.034C78.5492 110.041 75.0082 110.758 71.7069 112.144C68.4056 113.53 65.409 115.557 62.8889 118.109C60.3687 120.66 58.3746 123.687 57.021 127.015C55.6673 130.343 54.9807 133.906 55.0004 137.502L55.2505 189.631ZM136.422 178.817C138.293 178.817 140.123 179.375 141.679 180.42C143.235 181.465 144.448 182.95 145.164 184.688C145.88 186.426 146.067 188.338 145.701 190.183C145.335 192.027 144.433 193.721 143.109 195.051C141.785 196.38 140.098 197.285 138.263 197.651C136.427 198.017 134.524 197.827 132.795 197.106C131.066 196.385 129.589 195.165 128.551 193.601C127.512 192.036 126.958 190.197 126.96 188.316C126.96 187.068 127.205 185.832 127.68 184.679C128.156 183.526 128.853 182.478 129.732 181.596C130.61 180.714 131.654 180.014 132.802 179.537C133.949 179.061 135.18 178.816 136.422 178.817Z" fill="#475B5A"/>
</svg>
