<svg width="212" height="189" viewBox="0 0 212 189" fill="none" xmlns="http://www.w3.org/2000/svg">
<path fill-rule="evenodd" clip-rule="evenodd" d="M105.641 164.633C102.457 167.728 99.2854 170.554 96.1541 173.088C88.2639 179.473 80.4565 184.142 73.2009 186.48C65.9461 188.818 58.7952 188.949 52.8048 185.506C46.8144 182.064 43.3522 175.835 41.7592 168.413C40.1659 160.99 40.3252 151.925 41.9356 141.932C42.6069 137.766 43.5366 133.401 44.7167 128.878C40.3754 127.671 36.279 126.338 32.4637 124.89C22.9689 121.288 15.0067 116.901 9.34739 111.824C3.68884 106.749 0 100.658 0 93.7811C0 86.9038 3.68884 80.8136 9.34739 75.7378C15.0067 70.6614 22.9689 66.274 32.4637 62.6717C36.3017 61.2155 40.4242 59.8749 44.7943 58.6625C43.7174 54.4106 42.8628 50.3012 42.2372 46.3691C40.6412 36.3381 40.4995 27.2422 42.113 19.7967C43.7264 12.3519 47.2129 6.10845 53.2308 2.66611C59.2488 -0.776231 66.424 -0.63147 73.6991 1.72896C80.9749 4.08963 88.7999 8.79059 96.7045 15.213C99.7829 17.7142 102.899 20.4978 106.028 23.5411C109.212 20.446 112.384 17.6192 115.516 15.0848C123.406 8.69991 131.214 4.03047 138.469 1.6922C145.724 -0.645844 152.875 -0.776013 158.865 2.66633C164.856 6.10867 168.318 12.3375 169.911 19.7599C171.504 27.183 171.345 36.2474 169.735 46.2409C169.096 50.2052 168.223 54.3501 167.123 58.6396C171.524 59.858 175.674 61.2063 179.536 62.6717C189.031 66.274 196.993 70.6614 202.653 75.7378C208.311 80.8136 212 86.9038 212 93.7811C212 100.658 208.311 106.749 202.653 111.824C196.993 116.901 189.031 121.288 179.536 124.89C175.739 126.331 171.663 127.659 167.344 128.861C168.603 133.644 169.587 138.253 170.285 142.642C171.881 152.673 172.023 161.769 170.409 169.215C168.796 176.659 165.309 182.903 159.291 186.345C153.274 189.788 146.098 189.643 138.823 187.282C131.547 184.922 123.722 180.221 115.818 173.798C112.459 171.07 109.056 168.005 105.641 164.633ZM49.6571 166.733C50.9693 172.847 53.5225 176.637 56.8429 178.545C60.1634 180.453 64.7374 180.759 70.7131 178.833C76.688 176.907 83.6166 172.874 91.0593 166.851C94.009 164.464 97.0126 161.786 100.041 158.84C93.6783 151.955 87.3412 144.063 81.2508 135.355C71.0301 134.404 61.3772 132.875 52.5449 130.855C51.4216 135.155 50.5415 139.285 49.9099 143.205C48.3908 152.631 48.3451 160.621 49.6571 166.733ZM91.768 136.116C96.3549 142.303 101.034 147.974 105.702 153.05C110.413 147.995 115.141 142.331 119.78 136.139C115.267 136.367 110.667 136.484 106 136.484C101.177 136.484 96.4256 136.359 91.768 136.116ZM159.489 130.848C160.69 135.402 161.623 139.77 162.281 143.904C163.786 153.366 163.816 161.383 162.487 167.514C161.159 173.646 158.589 177.444 155.253 179.352C151.918 181.26 147.327 181.558 141.335 179.614C135.343 177.67 128.399 173.608 120.943 167.55C117.778 164.979 114.553 162.074 111.301 158.861C117.724 152.005 124.129 144.119 130.289 135.397C140.693 134.448 150.515 132.901 159.489 130.848ZM165.115 121.135C169.224 119.993 173.084 118.736 176.66 117.379C185.616 113.981 192.586 110.033 197.246 105.853C201.906 101.673 203.924 97.5862 203.924 93.7811C203.924 89.976 201.906 85.8895 197.246 81.709C192.586 77.5292 185.616 73.5809 176.66 70.1827C173.033 68.8067 169.114 67.5337 164.939 66.3784C162.261 75.1028 158.723 84.302 154.38 93.7048C158.775 103.13 162.371 112.363 165.115 121.135ZM149.763 103.181C152.729 110.035 155.228 116.719 157.245 123.113C150.689 124.596 143.627 125.806 136.171 126.696C138.518 123.07 140.815 119.324 143.05 115.471C145.43 111.368 147.669 107.264 149.763 103.181ZM145.438 93.7525C142.632 99.5886 139.502 105.512 136.056 111.452C132.757 117.139 129.327 122.569 125.816 127.705C119.42 128.19 112.794 128.446 106 128.446C99.0653 128.446 92.3057 128.18 85.7877 127.674C82.3991 122.67 79.089 117.391 75.9019 111.872C72.4289 105.857 69.2776 99.8608 66.4571 93.9545C69.205 88.2691 72.2603 82.5029 75.6146 76.7204C79.0461 70.8047 82.6192 65.1673 86.2784 59.8504C92.6447 59.3693 99.2392 59.116 106 59.116C112.76 59.116 119.354 59.3693 125.72 59.8503C129.463 65.2923 133.116 71.0705 136.62 77.1397C139.838 82.712 142.779 88.2686 145.438 93.7525ZM149.745 84.2732C152.672 77.4356 155.127 70.7768 157.097 64.416C150.57 62.9456 143.545 61.7453 136.131 60.8611C138.699 64.8097 141.21 68.9014 143.647 73.1206C145.796 76.8432 147.83 80.566 149.745 84.2732ZM130.216 52.1583C140.571 53.0998 150.351 54.6337 159.293 56.6698C160.337 52.6025 161.161 48.6901 161.76 44.9679C163.279 35.5412 163.325 27.5521 162.013 21.4392C160.701 15.3255 158.148 11.5357 154.827 9.62768C151.507 7.71962 146.933 7.41379 140.957 9.33958C134.982 11.2652 128.054 15.299 120.611 21.3218C117.673 23.6988 114.683 26.3639 111.667 29.2954C117.936 35.9921 124.189 43.6738 130.216 52.1583ZM100.367 29.3132C97.4051 26.4313 94.4669 23.8072 91.5797 21.4614C84.1234 15.4032 77.1791 11.3418 71.1874 9.39775C65.1951 7.45351 60.6046 7.75135 57.2689 9.65941C53.9332 11.5675 51.3637 15.3652 50.0348 21.4973C48.7061 27.6287 48.736 35.6454 50.2415 45.1075C50.8276 48.7913 51.632 52.661 52.6503 56.6827C61.6181 54.6378 71.4296 53.0982 81.8208 52.155C87.8456 43.6801 94.0983 36.0055 100.367 29.3132ZM46.9547 66.4078C42.8196 67.5552 38.9366 68.8183 35.3404 70.1827C26.3838 73.5809 19.4139 77.5292 14.7541 81.709C10.0936 85.8895 8.07619 89.976 8.07619 93.7811C8.07619 97.5862 10.0936 101.673 14.7541 105.853C19.4139 110.033 26.3838 113.981 35.3404 117.379C38.9296 118.741 42.8046 120.002 46.9307 121.148C49.6331 112.461 53.1805 103.312 57.522 93.9668C53.166 84.48 49.6261 75.2017 46.9547 66.4078ZM62.1759 84.4698C59.2421 77.5679 56.7856 70.8489 54.822 64.4344C61.3804 62.9535 68.4444 61.7456 75.9011 60.8573C73.4149 64.6763 70.9826 68.6289 68.6204 72.7012C66.3415 76.6298 64.1921 80.559 62.1759 84.4698ZM62.1169 103.452C59.2044 110.217 56.7515 116.811 54.7732 123.117C61.2045 124.571 68.1228 125.762 75.4212 126.647C73.19 123.166 71.0041 119.577 68.8756 115.891C66.4774 111.737 64.2231 107.584 62.1169 103.452ZM106.006 35.0815C110.57 39.9778 115.149 45.4473 119.649 51.4162C115.178 51.1927 110.622 51.0777 106 51.0777C101.379 51.0777 96.824 51.1927 92.3542 51.4161C96.8564 45.448 101.439 39.9785 106.006 35.0815Z" fill="#475B5A"/>
<path d="M105.5 112C115.717 112 124 103.717 124 93.5C124 83.2827 115.717 75 105.5 75C95.2827 75 87 83.2827 87 93.5C87 103.717 95.2827 112 105.5 112Z" fill="#475B5A"/>
</svg>
