<svg width="28" height="30" viewBox="0 0 28 30" fill="none" xmlns="http://www.w3.org/2000/svg">
<path fill-rule="evenodd" clip-rule="evenodd" d="M22.16 3.00006H5.76001C4.65544 3.00006 3.76001 3.89549 3.76001 5.00006V25C3.76001 26.1046 4.65544 27 5.76001 27H22.16C23.2645 27 24.16 26.1046 24.16 25V5.00006C24.16 3.89549 23.2645 3.00006 22.16 3.00006ZM5.76001 6.10352e-05C2.99859 6.10352e-05 0.76001 2.23864 0.76001 5.00006V25C0.76001 27.7614 2.99858 30 5.76001 30H22.16C24.9214 30 27.16 27.7614 27.16 25V5.00006C27.16 2.23864 24.9214 6.10352e-05 22.16 6.10352e-05H5.76001Z" fill="black"/>
<rect x="6.76001" y="16.8" width="14.4" height="2.4" fill="black"/>
<rect x="6.76001" y="22.8" width="14.4" height="2.4" fill="black"/>
<rect x="16.3599" y="11.4" width="4.79999" height="2.4" fill="black"/>
<rect x="16.96" y="5.39999" width="4.19999" height="2.4" fill="black"/>
<rect x="8.55994" y="5.39999" width="4.19999" height="4.19999" rx="2.1" fill="black"/>
<path d="M6.76001 13.8C6.76001 12.1432 8.10315 10.8 9.76 10.8H10.96C12.6169 10.8 13.96 12.1432 13.96 13.8H6.76001Z" fill="black"/>
</svg>
