<svg width="215" height="215" viewBox="0 0 215 215" fill="none" xmlns="http://www.w3.org/2000/svg">
<rect x="19" y="59" width="188" height="145" fill="#475B5A"/>
<path fill-rule="evenodd" clip-rule="evenodd" d="M18 0C8.05888 0 0 8.05887 0 18V197C0 206.941 8.05887 215 18 215H197C206.941 215 215 206.941 215 197V18C215 8.05888 206.941 0 197 0H18ZM124 101H49V118H76V197H96V118H124V101ZM194 102.5C174 98.5 133 96.5 133 126.5C133 145.543 146.82 151.766 158.414 156.986C166.91 160.811 174.211 164.099 174 171.5C173.5 189 139.5 178.5 133 171.5V192C157.5 200.5 196.5 200 196.5 171.5C196.5 138 154 141.5 154.5 126.5C154.5 115.5 176 110.5 194 124V102.5Z" fill="#3DA5D9"/>
</svg>
